<svg width="31" height="23" viewBox="0 0 31 23" fill="none" xmlns="http://www.w3.org/2000/svg">
<path fill-rule="evenodd" clip-rule="evenodd" d="M29.1501 8.97616H28.9551L29.2476 9.45979C30.2226 11.1041 30.8076 16.2306 29.1501 18.7455V21.4538C29.1501 22.0342 28.6626 22.4211 28.1751 22.4211H26.7126C26.1276 22.4211 25.7376 22.0342 25.7376 21.4538V20.1964H5.36013V21.4538C5.36013 22.0342 4.97013 22.4211 4.38513 22.4211H2.92263C2.43513 22.4211 1.94763 22.0342 1.94763 21.4538V18.939C0.192634 16.5208 0.777634 11.2009 1.75263 9.45979L2.04513 8.97616H1.85013C1.07013 8.97616 0.387634 8.3958 0.387634 7.52526V6.84818C0.387634 6.36455 0.777634 5.88092 1.36263 5.88092H3.80013C4.48263 4.62348 5.16513 3.36604 5.84763 2.1086C6.43263 1.14133 7.89513 0.174072 9.26013 0.174072H21.7401C23.1051 0.174072 24.5676 1.14133 25.1526 2.1086C25.8351 3.36604 26.5176 4.62348 27.2001 5.88092H29.6376C30.2226 5.88092 30.6126 6.36455 30.6126 6.84818V7.52526C30.6126 8.3958 29.9301 8.97616 29.1501 8.97616ZM11.2101 15.5535H19.7901C20.0826 15.5535 20.3751 15.8437 20.3751 16.1339C20.3751 16.4241 20.0826 16.6175 19.7901 16.6175H11.2101C10.9176 16.6175 10.6251 16.4241 10.6251 16.1339C10.6251 15.8437 10.9176 15.5535 11.2101 15.5535ZM25.3476 12.4583C24.2751 12.4583 23.2026 13.3288 22.8126 14.3928C22.5201 15.4568 23.2026 16.3273 24.2751 16.3273C25.3476 16.3273 26.4201 15.4568 26.7126 14.3928C27.0051 13.3288 26.4201 12.4583 25.3476 12.4583ZM5.65263 12.4583C6.72513 12.4583 7.79763 13.3288 8.18763 14.3928C8.48013 15.4568 7.79763 16.3273 6.72513 16.3273C5.65263 16.3273 4.58013 15.4568 4.28763 14.3928C3.99513 13.3288 4.58013 12.4583 5.65263 12.4583ZM15.8901 8.97616L16.4751 8.10562C16.9626 7.42854 17.7426 7.42854 18.5226 7.42854H21.9351C22.7151 7.42854 23.4951 7.42854 23.9826 8.10562L24.5676 8.97616H26.1276L23.6901 2.88241C23.3976 2.30205 22.1301 1.72169 21.7401 1.72169H9.26013C8.87013 1.72169 7.60263 2.30205 7.31013 2.88241L4.87263 8.97616H15.8901ZM20.3751 2.4955C21.5451 2.4955 22.4226 3.36604 22.4226 4.52675C22.4226 5.68746 21.5451 6.65473 20.3751 6.65473C19.2051 6.65473 18.2301 5.68746 18.2301 4.52675C18.2301 3.36604 19.2051 2.4955 20.3751 2.4955Z" fill="#282E3F"/>
</svg>
