<svg width="40" height="40" viewBox="0 0 40 40" fill="none" xmlns="http://www.w3.org/2000/svg">
<rect width="40" height="40" rx="20" fill="#5A5D67"/>
<path d="M27 17C27 16.0807 26.8189 15.1705 26.4672 14.3212C26.1154 13.4719 25.5998 12.7003 24.9497 12.0503C24.2997 11.4002 23.5281 10.8846 22.6788 10.5328C21.8295 10.1811 20.9193 10 20 10C19.0807 10 18.1705 10.1811 17.3212 10.5328C16.4719 10.8846 15.7003 11.4002 15.0503 12.0503C14.4002 12.7003 13.8846 13.4719 13.5328 14.3212C13.1811 15.1705 13 16.0807 13 17C13 18.387 13.409 19.677 14.105 20.765H14.097L20 30L25.903 20.765H25.896C26.6169 19.6416 27.0001 18.3348 27 17ZM20 20C19.2044 20 18.4413 19.6839 17.8787 19.1213C17.3161 18.5587 17 17.7956 17 17C17 16.2044 17.3161 15.4413 17.8787 14.8787C18.4413 14.3161 19.2044 14 20 14C20.7956 14 21.5587 14.3161 22.1213 14.8787C22.6839 15.4413 23 16.2044 23 17C23 17.7956 22.6839 18.5587 22.1213 19.1213C21.5587 19.6839 20.7956 20 20 20Z" fill="#EBEBF2"/>
</svg>
