<svg width="44" height="44" viewBox="0 0 44 44" fill="none" xmlns="http://www.w3.org/2000/svg">
<rect width="44" height="44" rx="22" fill="#5A5D67"/>
<path d="M24.4183 15.4902C23.9423 15.4023 23.5051 15.7061 23.4145 16.1708C23.3238 16.6355 23.6286 17.0891 24.0917 17.1801C25.4859 17.4519 26.5625 18.5312 26.8354 19.9302C26.9131 20.3329 27.2676 20.6267 27.6759 20.6267C27.7307 20.6267 27.7855 20.6217 27.8413 20.6117C28.3043 20.5188 28.6091 20.0661 28.5185 19.6004C28.1111 17.5109 26.5028 15.897 24.4183 15.4902Z" fill="#EBEBF2"/>
<path d="M24.3567 12.0079C24.1336 11.976 23.9095 12.0419 23.7313 12.1838C23.548 12.3277 23.4335 12.5356 23.4086 12.7684C23.3558 13.2391 23.6954 13.6648 24.1655 13.7178C27.4071 14.0795 29.9268 16.6048 30.2913 19.8565C30.3401 20.2922 30.7056 20.621 31.1418 20.621C31.1746 20.621 31.2065 20.619 31.2394 20.615C31.4674 20.59 31.6706 20.4771 31.814 20.2972C31.9564 20.1174 32.0211 19.8935 31.9953 19.6647C31.5411 15.6075 28.401 12.4586 24.3567 12.0079Z" fill="#EBEBF2"/>
<path fill-rule="evenodd" clip-rule="evenodd" d="M21.0317 22.9724C25.0208 26.9604 25.9258 22.3467 28.4656 24.8848C30.9143 27.3328 32.3216 27.8232 29.2192 30.9247C28.8306 31.237 26.3616 34.9943 17.6846 26.3197C9.00652 17.644 12.7616 15.1724 13.074 14.7839C16.1839 11.6738 16.6659 13.0894 19.1145 15.5373C21.6544 18.0765 17.0427 18.9844 21.0317 22.9724Z" fill="#EBEBF2"/>
</svg>
