<svg width="61" height="61" viewBox="0 0 61 61" fill="none" xmlns="http://www.w3.org/2000/svg">
<g filter="url(#filter0_b_85_132)">
<circle cx="30.5" cy="30.2501" r="30" fill="url(#paint0_linear_85_132)"/>
<circle cx="30.5" cy="30.2501" r="29.5" stroke="url(#paint1_linear_85_132)"/>
</g>
<path d="M42.7113 28.7877L25.7686 20.3322C25.6334 20.2699 25.4847 20.2423 25.336 20.252C25.1874 20.2617 25.0436 20.3084 24.9176 20.3878C24.7915 20.4672 24.6873 20.5768 24.6144 20.7066C24.5415 20.8365 24.5022 20.9825 24.5 21.1315V38.0488C24.5022 38.1977 24.5415 38.3437 24.6144 38.4736C24.6873 38.6035 24.7915 38.7131 24.9176 38.7925C25.0436 38.8719 25.1874 38.9185 25.336 38.9282C25.4847 38.9379 25.6334 38.9104 25.7686 38.848L42.7113 30.3862C42.8595 30.3118 42.9841 30.1976 43.0711 30.0565C43.1582 29.9153 43.2043 29.7528 43.2043 29.587C43.2043 29.4211 43.1582 29.2586 43.0711 29.1174C42.9841 28.9763 42.8595 28.8621 42.7113 28.7877Z" fill="#FEFEF4"/>
<defs>
<filter id="filter0_b_85_132" x="-8.5" y="-8.74988" width="78" height="78" filterUnits="userSpaceOnUse" color-interpolation-filters="sRGB">
<feFlood flood-opacity="0" result="BackgroundImageFix"/>
<feGaussianBlur in="BackgroundImageFix" stdDeviation="4.5"/>
<feComposite in2="SourceAlpha" operator="in" result="effect1_backgroundBlur_85_132"/>
<feBlend mode="normal" in="SourceGraphic" in2="effect1_backgroundBlur_85_132" result="shape"/>
</filter>
<linearGradient id="paint0_linear_85_132" x1="30.5" y1="0.250122" x2="30.5" y2="60.2501" gradientUnits="userSpaceOnUse">
<stop stop-color="#3F465B"/>
<stop offset="1" stop-color="#AFB7CC" stop-opacity="0"/>
</linearGradient>
<linearGradient id="paint1_linear_85_132" x1="30.5" y1="0.250122" x2="30.5" y2="60.2501" gradientUnits="userSpaceOnUse">
<stop stop-color="#C5D1F2"/>
<stop offset="1" stop-color="#424C69"/>
</linearGradient>
</defs>
</svg>
