<svg width="102" height="43" viewBox="0 0 102 43" fill="none" xmlns="http://www.w3.org/2000/svg">
<rect width="26.3399" height="1.41422" fill="#CF9455"/>
<rect x="1.06061" y="2.47504" width="24.3954" height="2.12134" fill="#CF9455"/>
<rect x="1.94461" y="5.48004" width="22.6276" height="1.591" fill="#CF9455"/>
<rect x="2.6517" y="7.07117" width="0.88389" height="13.6119" fill="#CF9455"/>
<rect x="22.9812" y="7.07117" width="0.88389" height="13.6119" fill="#CF9455"/>
<rect x="14.3191" y="7.07117" width="5.12656" height="18.9152" fill="#CF9455"/>
<rect x="7.07114" y="7.07117" width="5.12656" height="18.9152" fill="#CF9455"/>
<path d="M13.1699 42.25L11.844 40.3938H14.4957L13.1699 42.25Z" fill="#CF9455"/>
<path d="M23.7766 27.3124H2.74002L11.5789 39.6868H14.9377L23.7766 27.3124Z" fill="#CF9455"/>
<path d="M41.566 15.074V18.432H47.868V21.675H41.566V28H37.679V11.716H48.397V15.074H41.566ZM51.621 28V11.716H55.577V28H51.621ZM73.9622 25.746C73.2416 26.574 72.3522 27.2333 71.2942 27.724C70.2362 28.1993 69.0172 28.437 67.6372 28.437C66.3799 28.437 65.2146 28.23 64.1412 27.816C63.0832 27.402 62.1632 26.8193 61.3812 26.068C60.5992 25.3013 59.9859 24.389 59.5412 23.331C59.0966 22.273 58.8742 21.1077 58.8742 19.835C58.8742 18.5317 59.0966 17.351 59.5412 16.293C60.0012 15.235 60.6299 14.338 61.4272 13.602C62.2246 12.8507 63.1599 12.2757 64.2332 11.877C65.3066 11.4783 66.4642 11.279 67.7062 11.279C68.8562 11.279 69.9832 11.486 71.0872 11.9C72.2066 12.2987 73.1112 12.889 73.8012 13.671L71.1332 16.339C70.7652 15.833 70.2822 15.4573 69.6842 15.212C69.0862 14.9667 68.4729 14.844 67.8442 14.844C67.1542 14.844 66.5179 14.9743 65.9352 15.235C65.3679 15.4803 64.8772 15.8253 64.4632 16.27C64.0492 16.7147 63.7272 17.2437 63.4972 17.857C63.2672 18.455 63.1522 19.1143 63.1522 19.835C63.1522 20.571 63.2672 21.2457 63.4972 21.859C63.7272 22.4723 64.0416 23.0013 64.4402 23.446C64.8542 23.8753 65.3449 24.2127 65.9122 24.458C66.4796 24.7033 67.1006 24.826 67.7752 24.826C68.5572 24.826 69.2396 24.6727 69.8222 24.366C70.4049 24.0593 70.8726 23.6607 71.2252 23.17L73.9622 25.746ZM76.3379 28V11.716H80.2939V24.573H86.5959V28H76.3379ZM95.2719 21.1V28H91.3389V21.1L85.2209 11.716H89.9819L93.4549 17.742L96.9279 11.716H101.528L95.2719 21.1Z" fill="white"/>
</svg>
