<svg width="28" height="33" viewBox="0 0 28 33" fill="none" xmlns="http://www.w3.org/2000/svg">
<g clip-path="url(#clip0_153_948)">
<path d="M4.25674 30.6087H27.3436C27.5175 30.6081 27.6841 30.5324 27.8071 30.3979C27.93 30.2635 27.9993 30.0814 27.9999 29.8913V28.9348C27.9993 28.7447 27.93 28.5625 27.8071 28.4281C27.6841 28.2937 27.5175 28.218 27.3436 28.2174H27.2342C26.7121 28.2174 26.2113 27.9906 25.8421 27.587C25.4729 27.1834 25.2655 26.636 25.2655 26.0652C25.2655 25.4944 25.4729 24.947 25.8421 24.5434C26.2113 24.1398 26.7121 23.913 27.2342 23.913H27.3436C27.5175 23.9125 27.6841 23.8367 27.8071 23.7023C27.93 23.5679 27.9993 23.3857 27.9999 23.1957V22.2391C27.9993 22.049 27.93 21.8669 27.8071 21.7325C27.6841 21.5981 27.5175 21.5223 27.3436 21.5217H20.9999V21.163C20.9999 20.6874 20.827 20.2312 20.5193 19.8949C20.2117 19.5585 19.7944 19.3696 19.3592 19.3696H15.3124V9.68956C15.8648 9.3728 16.3073 8.86726 16.5724 8.25H22.8702L21.1464 11.9278C20.9939 11.9388 20.8504 12.0106 20.7431 12.1296C20.6358 12.2486 20.5723 12.4066 20.5646 12.5735C20.5497 12.9917 20.6122 13.4088 20.7484 13.8C20.8846 14.1911 21.0916 14.5481 21.357 14.8497C21.6225 15.1513 21.9409 15.3911 22.2932 15.5549C22.6455 15.7187 23.0244 15.803 23.4073 15.8029C23.7901 15.8027 24.1689 15.7181 24.5211 15.554C24.8733 15.3899 25.1916 15.1498 25.4568 14.848C25.722 14.5462 25.9288 14.189 26.0647 13.7977C26.2006 13.4065 26.2628 12.9893 26.2477 12.5711C26.2399 12.4045 26.1762 12.2468 26.0689 12.1282C25.9616 12.0096 25.8181 11.9382 25.6658 11.9278L23.9027 8.16391C24.0796 8.08043 24.2304 7.94226 24.3365 7.76638C24.4426 7.59051 24.4994 7.38458 24.4999 7.17391V6.45652C24.4995 6.17126 24.3956 5.89781 24.2111 5.6961C24.0266 5.49439 23.7764 5.38088 23.5155 5.38043H16.4586C16.188 4.86987 15.7906 4.45363 15.3124 4.18V1.07609C15.312 0.790827 15.2081 0.517377 15.0236 0.315668C14.8391 0.113958 14.5889 0.000442706 14.328 0L13.6717 0C13.4108 0.000442706 13.1606 0.113958 12.9761 0.315668C12.7916 0.517377 12.6878 0.790827 12.6874 1.07609V4.18C12.2091 4.45363 11.8117 4.86987 11.5411 5.38043H4.48424C4.22329 5.38088 3.97315 5.49439 3.78863 5.6961C3.60411 5.89781 3.50027 6.17126 3.49986 6.45652V7.17391C3.50037 7.38458 3.55715 7.59051 3.66324 7.76638C3.76933 7.94226 3.92011 8.08043 4.09705 8.16391L2.33393 11.9278C2.18128 11.9384 2.03755 12.0101 1.93021 12.1292C1.82287 12.2483 1.75944 12.4065 1.75205 12.5735C1.73719 12.9917 1.79972 13.4088 1.93589 13.8C2.07207 14.1911 2.27908 14.5481 2.54453 14.8497C2.80998 15.1513 3.1284 15.3911 3.4807 15.5549C3.83299 15.7187 4.21192 15.803 4.59475 15.8029C4.97759 15.8027 5.35645 15.7181 5.70863 15.554C6.06081 15.3899 6.37906 15.1498 6.6443 14.848C6.90953 14.5462 7.1163 14.189 7.2522 13.7977C7.3881 13.4065 7.45034 12.9893 7.43518 12.5711C7.42736 12.4045 7.36374 12.2468 7.25642 12.1282C7.14911 12.0096 7.00562 11.9382 6.8533 11.9278L5.12955 8.25H11.4274C11.6925 8.86726 12.135 9.3728 12.6874 9.68956V19.3696H8.64049C8.20537 19.3696 7.78807 19.5585 7.48039 19.8949C7.17271 20.2312 6.99986 20.6874 6.99986 21.163V21.5217H4.15611C3.06872 21.5319 2.02745 22.0034 1.25202 22.8368C0.476579 23.6702 0.0276198 24.8003 -0.000136216 25.9887C-0.0635737 28.4661 2.00799 30.6589 4.25674 30.6087ZM24.9264 11.9254H21.8858L23.4061 8.67804L24.9264 11.9254ZM6.11393 11.9254H3.0733L4.59361 8.67804L6.11393 11.9254ZM13.9999 5.8587C14.1946 5.8587 14.3849 5.92181 14.5468 6.04005C14.7086 6.15829 14.8348 6.32635 14.9093 6.52298C14.9838 6.71961 15.0033 6.93598 14.9653 7.14472C14.9273 7.35346 14.8336 7.5452 14.6959 7.69569C14.5583 7.84618 14.3829 7.94867 14.1919 7.99019C14.001 8.03171 13.803 8.0104 13.6232 7.92896C13.4433 7.84751 13.2895 7.70959 13.1814 7.53262C13.0732 7.35566 13.0155 7.14761 13.0155 6.93478C13.0155 6.64939 13.1192 6.37568 13.3038 6.17387C13.4884 5.97207 13.7388 5.8587 13.9999 5.8587ZM4.15611 23.913C9.49361 23.9752 25.5039 23.913 25.5039 23.913C25.2267 24.1774 25.0044 24.5035 24.852 24.8696H9.07799C8.99096 24.8696 8.9075 24.9074 8.84597 24.9746C8.78443 25.0419 8.74986 25.1331 8.74986 25.2283C8.74986 25.3234 8.78443 25.4146 8.84597 25.4819C8.9075 25.5492 8.99096 25.587 9.07799 25.587H24.6486C24.5961 25.9032 24.5961 26.2272 24.6486 26.5435H17.1717C17.0847 26.5435 17.0013 26.5813 16.9397 26.6485C16.8782 26.7158 16.8436 26.807 16.8436 26.9022C16.8436 26.9973 16.8782 27.0885 16.9397 27.1558C17.0013 27.2231 17.0847 27.2609 17.1717 27.2609H24.852C25.0044 27.6269 25.2267 27.9531 25.5039 28.2174H4.23268C3.70793 28.2237 3.20143 28.0071 2.8199 27.6132C2.43836 27.2193 2.21159 26.6789 2.18736 26.1059C2.18374 25.5301 2.38882 24.9762 2.75775 24.5653C3.12668 24.1544 3.62945 23.9199 4.15611 23.913Z" fill="#282E3F"/>
</g>
<defs>
<clipPath id="clip0_153_948">
<rect width="28" height="33" fill="white"/>
</clipPath>
</defs>
</svg>
